<svg id="Layer_1" data-name="Layer 1" xmlns="http://www.w3.org/2000/svg" viewBox="0 0 320 70"><defs><style>.cls-1{fill:#00acff;}.cls-2{isolation:isolate;}</style></defs><path class="cls-1" d="M53.8,56.82l-1-1L48.4,51.42l-1-1-2.54-2.54-1-1L42,45a.92.92,0,0,1-.12-1.09A24.82,24.82,0,0,0,44,39.67a.42.42,0,0,0,0-.1A16.89,16.89,0,0,0,33,18.36a16.91,16.91,0,0,0-11.61.51l0,0s.17.24.45.5l3.13,2.87a2.21,2.21,0,0,0,.6.45h0a12,12,0,0,1,14.07,9.42,11.77,11.77,0,0,1,.16,3.6v.12a1,1,0,0,0,0,.17,12,12,0,0,1-2,5.26l0,0a12,12,0,1,1-17.5-16h0s-.22-.22-.51-.48L17.1,22.41l-1-.95-1.68-1.54a.59.59,0,0,1-.08-.82.94.94,0,0,1,.1-.1,31.11,31.11,0,0,1,4-2.75l.09-.05a20.55,20.55,0,0,1,29.92,20c0,.31-.06.61-.1.92a20.56,20.56,0,0,1-1.36,5.1v0s.2.28.49.54l3.12,2.85a2,2,0,0,0,.54.42l0,0a26,26,0,0,0,2-5.51,24.67,24.67,0,0,0,.5-2.7A25.91,25.91,0,0,0,14.31,12.39l-.09.06a25.87,25.87,0,0,0-4.31,3.36l0,0a25.94,25.94,0,0,0-3.41,4l0,0a1.92,1.92,0,0,0,.48.53l3,2.72,1,.95,1.74,1.59a1,1,0,0,1,.22,1.11,25.24,25.24,0,0,0-1.64,4.8l-.09.62A16.88,16.88,0,0,0,37.45,48.37l.12-.08c.12-.09.45.06.72.33l1.63,1.63c.27.28.44.55.36.6l-.06,0A20.55,20.55,0,0,1,7.54,31.74c.14-1,.45-2.3.45-2.3a1.28,1.28,0,0,0-.35-1.15l-3.27-3a.42.42,0,0,0-.74.19A38.65,38.65,0,0,0,2.23,31a25.91,25.91,0,0,0,42,23.54h0l.5.49.84.85,1,1,2.58,2.58,1,1,.85.85a.71.71,0,0,0,1,0h0l2.66-2.67a.69.69,0,0,0,0-1Z"/><g class="cls-2"><g class="cls-2"><path class="cls-1" d="M81.1,51.17a15.69,15.69,0,0,1-6.59-1.35,15.87,15.87,0,0,1-5.07-3.61,16.65,16.65,0,0,1-3.28-5.12A15.51,15.51,0,0,1,65,35.22a15,15,0,0,1,1.23-6,16.86,16.86,0,0,1,3.4-5.1,16.07,16.07,0,0,1,5.12-3.54,15.88,15.88,0,0,1,6.49-1.31,15.4,15.4,0,0,1,6.53,1.37,15.86,15.86,0,0,1,5,3.68,17.71,17.71,0,0,1,3.26,5.14,15.37,15.37,0,0,1,1.16,5.85,15.09,15.09,0,0,1-1.21,6,16.67,16.67,0,0,1-3.37,5.09,15.84,15.84,0,0,1-5.12,3.53A16.1,16.1,0,0,1,81.1,51.17Zm0-5.4a9.2,9.2,0,0,0,4.14-.91,9,9,0,0,0,3-2.44A11,11,0,0,0,90.14,39a11.91,11.91,0,0,0,.63-3.79,11.69,11.69,0,0,0-.67-3.94,10.84,10.84,0,0,0-1.91-3.37,9.36,9.36,0,0,0-3-2.35,9.82,9.82,0,0,0-8.19,0A8.7,8.7,0,0,0,74,28a11.16,11.16,0,0,0-1.84,3.39,11.8,11.8,0,0,0-.63,3.81,12.15,12.15,0,0,0,.65,3.94,10.49,10.49,0,0,0,1.89,3.37,9.22,9.22,0,0,0,3,2.35A9.08,9.08,0,0,0,81.14,45.77Zm-.65-6.47h6.05L97.42,51h-6Z"/></g><g class="cls-2"><path class="cls-1" d="M110.54,19.49h6.52L129.2,51h-6.61l-2.74-7.84H107.72L105,51h-6.6Zm7.8,19.32-4.54-13-4.57,13Z"/><path class="cls-1" d="M141.39,51.39a14.33,14.33,0,0,1-5.35-.94,11.69,11.69,0,0,1-7.45-10.93,11.84,11.84,0,0,1,.89-4.56A11.52,11.52,0,0,1,136,28.54a14.53,14.53,0,0,1,5.35-.94,14.33,14.33,0,0,1,5.32.94,12,12,0,0,1,4,2.61A11.1,11.1,0,0,1,153.27,35a12,12,0,0,1,.86,4.56,11.87,11.87,0,0,1-.86,4.51,11.33,11.33,0,0,1-2.51,3.81,11.65,11.65,0,0,1-4,2.61A14.37,14.37,0,0,1,141.39,51.39ZM135,39.52a7.29,7.29,0,0,0,.84,3.54,6.14,6.14,0,0,0,5.54,3.28,6,6,0,0,0,3.21-.89A6.48,6.48,0,0,0,146.9,43a7.7,7.7,0,0,0,0-7.07,6.34,6.34,0,0,0-2.3-2.43,6.39,6.39,0,0,0-6.47,0A6.45,6.45,0,0,0,135.85,36,7.29,7.29,0,0,0,135,39.52Z"/><path class="cls-1" d="M179.63,51h-6.24V38.11a6.37,6.37,0,0,0-1-4,3.43,3.43,0,0,0-2.84-1.27,5.93,5.93,0,0,0-2.53.6,8,8,0,0,0-2.31,1.67,6.46,6.46,0,0,0-1.48,2.44V51H157V28h5.63v4.28A8.72,8.72,0,0,1,165,29.73a10.68,10.68,0,0,1,3.33-1.58,14,14,0,0,1,4-.55,8,8,0,0,1,3.74.77,5.53,5.53,0,0,1,2.24,2.06,9,9,0,0,1,1.07,2.91,18.06,18.06,0,0,1,.3,3.29Z"/><path class="cls-1" d="M182.09,35a15.23,15.23,0,0,1,1.1-5.65,16.12,16.12,0,0,1,3.18-5,15.37,15.37,0,0,1,5.12-3.64,16.74,16.74,0,0,1,6.89-1.35,15.59,15.59,0,0,1,7.88,1.91,12.45,12.45,0,0,1,5,5l-4.94,3.23a7.41,7.41,0,0,0-2.18-2.81,8.31,8.31,0,0,0-2.89-1.46,11.39,11.39,0,0,0-3-.42,9,9,0,0,0-4.21.93A9.29,9.29,0,0,0,191,28a10.23,10.23,0,0,0-1.79,3.37,12.33,12.33,0,0,0-.58,3.72,11.78,11.78,0,0,0,.69,4,10.9,10.9,0,0,0,2,3.41,9.33,9.33,0,0,0,3.07,2.35,8.88,8.88,0,0,0,3.93.87,10.73,10.73,0,0,0,3.12-.49,9.1,9.1,0,0,0,2.93-1.55A7,7,0,0,0,206.42,41l5.26,2.88a9.35,9.35,0,0,1-3.19,4,16.2,16.2,0,0,1-5,2.48,18.5,18.5,0,0,1-5.44.84,14.84,14.84,0,0,1-6.47-1.39,16.18,16.18,0,0,1-5-3.73,17.62,17.62,0,0,1-3.3-5.22A15.47,15.47,0,0,1,182.09,35Z"/><path class="cls-1" d="M214,18.61h6.23v25a3.08,3.08,0,0,0,.56,2.15,2.07,2.07,0,0,0,1.53.56,6.94,6.94,0,0,0,1.54-.18,8.14,8.14,0,0,0,1.39-.44l.84,4.52a12.35,12.35,0,0,1-2.93.88,16.37,16.37,0,0,1-3,.31,6.39,6.39,0,0,1-4.54-1.49,5.48,5.48,0,0,1-1.6-4.24Z"/><path class="cls-1" d="M238.71,51.39a14.33,14.33,0,0,1-5.35-.94,11.65,11.65,0,0,1-7.44-10.93A11.83,11.83,0,0,1,226.8,35a11.52,11.52,0,0,1,6.56-6.42,15.64,15.64,0,0,1,10.68,0,12,12,0,0,1,4,2.61A11.1,11.1,0,0,1,250.59,35a12,12,0,0,1,.87,4.56,11.87,11.87,0,0,1-.87,4.51,11.33,11.33,0,0,1-2.51,3.81,11.65,11.65,0,0,1-4,2.61A14.37,14.37,0,0,1,238.71,51.39Zm-6.37-11.87a7.29,7.29,0,0,0,.83,3.54,6.14,6.14,0,0,0,5.54,3.28,6,6,0,0,0,3.21-.89,6.48,6.48,0,0,0,2.3-2.43,7.7,7.7,0,0,0,0-7.07,6.34,6.34,0,0,0-2.3-2.43,6.39,6.39,0,0,0-6.47,0A6.45,6.45,0,0,0,233.17,36,7.29,7.29,0,0,0,232.34,39.52Z"/><path class="cls-1" d="M254.06,42.35V28h6.23V41a6.4,6.4,0,0,0,1,4,3.57,3.57,0,0,0,3,1.33,6.71,6.71,0,0,0,2.4-.45,6.9,6.9,0,0,0,2.18-1.37,7.65,7.65,0,0,0,1.7-2.3V28h6.24V44.33a2,2,0,0,0,.34,1.31,1.78,1.78,0,0,0,1.14.48V51c-.62.09-1.14.16-1.55.2s-.8.07-1.14.07a4.73,4.73,0,0,1-2.73-.73,2.83,2.83,0,0,1-1.23-2l-.14-1.84a10.5,10.5,0,0,1-4.19,3.54,13.05,13.05,0,0,1-5.62,1.2,7.09,7.09,0,0,1-5.73-2.3C254.71,47.55,254.06,45.31,254.06,42.35Z"/><path class="cls-1" d="M280.2,39.48a12.94,12.94,0,0,1,1.4-6,10.92,10.92,0,0,1,3.86-4.27,10.25,10.25,0,0,1,5.63-1.58A9.47,9.47,0,0,1,296,28.86a9.57,9.57,0,0,1,3.37,3.22V18.61h6.24V44.3a2.16,2.16,0,0,0,.32,1.33,1.61,1.61,0,0,0,1.12.49V51a14.56,14.56,0,0,1-2.65.31,4.59,4.59,0,0,1-2.77-.8,2.84,2.84,0,0,1-1.23-2.08l-.09-1.46a9,9,0,0,1-3.66,3.32,10.58,10.58,0,0,1-4.81,1.15,11.3,11.3,0,0,1-10.72-7.25A12.38,12.38,0,0,1,280.2,39.48Zm19.12,3V37.08a6.12,6.12,0,0,0-1.48-2.26,8.56,8.56,0,0,0-2.28-1.58,6,6,0,0,0-2.52-.59,5.81,5.81,0,0,0-2.6.57,6.44,6.44,0,0,0-2,1.52,6.62,6.62,0,0,0-1.3,2.21,8.15,8.15,0,0,0-.44,2.66,7.06,7.06,0,0,0,.49,2.63,6.25,6.25,0,0,0,1.42,2.15,6.9,6.9,0,0,0,2.16,1.43,6.74,6.74,0,0,0,2.68.52,6,6,0,0,0,1.79-.28,7.84,7.84,0,0,0,1.72-.78,6.47,6.47,0,0,0,1.44-1.22A5.1,5.1,0,0,0,299.32,42.52Z"/></g></g></svg>